<?xml version="1.0" encoding="UTF-8" standalone="no" ?>
<!DOCTYPE svg PUBLIC "-//W3C//DTD SVG 1.1//EN" "http://www.w3.org/Graphics/SVG/1.1/DTD/svg11.dtd">
<svg xmlns="http://www.w3.org/2000/svg" xmlns:xlink="http://www.w3.org/1999/xlink" version="1.1" width="1080" height="1080" viewBox="0 0 1080 1080" xml:space="preserve">
<desc>Created with Fabric.js 5.2.4</desc>
<defs>
</defs>
<rect x="0" y="0" width="100%" height="100%" fill="transparent"></rect>
<g transform="matrix(1 0 0 1 540 540)" id="50b4e88a-ac92-4fd9-ac3c-54310b8000f7"  >
<rect style="stroke: none; stroke-width: 1; stroke-dasharray: none; stroke-linecap: butt; stroke-dashoffset: 0; stroke-linejoin: miter; stroke-miterlimit: 4; fill: rgb(255,255,255); fill-rule: nonzero; opacity: 1; visibility: hidden;" vector-effect="non-scaling-stroke"  x="-540" y="-540" rx="0" ry="0" width="1080" height="1080" />
</g>
<g transform="matrix(1 0 0 1 540 540)" id="a5a42aca-0c87-4987-870c-08defe7aabb6"  >
</g>
<g transform="matrix(1 0 0 1 540 540)" id="9c480d81-4688-4f31-93f7-ca4604355793"  >
<path style="stroke: rgb(0,0,0); stroke-width: 0; stroke-dasharray: none; stroke-linecap: butt; stroke-dashoffset: 0; stroke-linejoin: miter; stroke-miterlimit: 4; fill: rgb(255,255,255); fill-rule: nonzero; opacity: 1;" vector-effect="non-scaling-stroke"  transform=" translate(-480, -566)" d="M -10 826 L -10 762.075 Q -10 719.979 33.5 692.99 Q 77 666 150.376 666 L 164 666 Q 171 666 177 666.652 Q 168 687 162.32 707.267 Q 156.63899999999998 727.5340000000001 156.63899999999998 750.8230000000001 L 156.63899999999998 826 L -10 826 Z M 230 826 L 230 751 Q 230 715 247.978 686.815 Q 265.955 658.63 299 638 Q 332.867 618 379.086 607 Q 425.30400000000003 596 479.59000000000003 596 Q 534.921 596 581.111 607 Q 627.3009999999999 618 661 638 Q 694 659 712 687 Q 730 715 730 751 L 730 826 L 230 826 Z M 803 826 L 803 750.429 Q 803 727.7909999999999 798 706.722 Q 793 685.6519999999999 785 666.727 Q 791 666 797.243 666 L 810 666 Q 883.4 666 926.7 692.186 Q 970 718.371 970 763 L 970 826 L 803 826 Z M 319 749 L 641 749 L 641 743 Q 633 711 590.5 691.5 Q 548 672 480 672 Q 412 672 369 692 Q 326 712 319 744 L 319 749 Z M 149.824 638 Q 119 638 96.5 615.727 Q 74 593.454 74 561.997 Q 74 530.336 96.56700000000001 508.16799999999995 Q 119.13400000000001 485.9999999999999 149.975 486 Q 181 486 204 508.128 Q 227 530.257 227 562.097 Q 227 593 204.561 615.5 Q 182.123 638 149.824 638 Z M 809.8240000000001 638 Q 779 638 756.5 615.727 Q 734 593.454 734 561.997 Q 734 530.336 756.567 508.16799999999995 Q 779.134 485.9999999999999 809.975 486 Q 841 486 864 508.128 Q 887 530.257 887 562.097 Q 887 593 864.561 615.5 Q 842.123 638 809.824 638 Z M 480.96200000000005 566 Q 427.62000000000006 566 388.81000000000006 527.646 Q 350.00000000000006 489.2919999999999 350 435.93 Q 350 381 388.81 343.5 Q 427.62 306 480.962 306 Q 535.871 306 572.935 343.26800000000003 Q 610 380.535 610 435.744 Q 610 489.38000000000005 572.935 527.69 Q 535.871 566 480.962 566 Z M 480.96500000000003 489 Q 501 489 517.5 473.43 Q 534 457.86 534 434.93 Q 534 414 517.285 398 Q 500.56999999999994 382 480.03499999999997 382 Q 457 382 442 398.022 Q 427 414.044 427 435.772 Q 427 458 441.965 473.5 Q 456.92999999999995 489 480.965 489 Z M 480 749 Z M 480 436 Z" stroke-linecap="round" />
</g>
</svg>