<svg xmlns="http://www.w3.org/2000/svg" height="48" viewBox="0 96 960 960" width="48"><path d="M87 504q0-87.669 35.5-166.835Q158 258 225 202l54 59q-54.421 46.161-83.211 109.123Q167 433.085 167 504H87Zm708 0q0-71-27.921-133.891Q739.158 307.218 685 261l54-59q67.146 56.472 101.573 134.926Q875 415.38 875 504h-80ZM119 878v-92h93V504q0-92.085 53.5-165.542Q319 265 409 242.583V219q0-29.667 20.841-49.333Q450.681 150 479.882 150q29.201 0 50.16 19.667Q551 189.333 551 219v23.583Q642 264 696.5 337.828T751 504v282h91v92H119Zm361-316Zm.544 436q-35.019 0-61.281-25.556Q393 946.888 393 911h175q0 37-25.924 62-25.925 25-61.532 25ZM303 786h356V504q0-74.062-51.763-126.031Q555.475 326 481 326t-126.237 51.969Q303 429.938 303 504v282Z"/></svg>