<?xml version="1.0" encoding="UTF-8" standalone="no" ?>
<!DOCTYPE svg PUBLIC "-//W3C//DTD SVG 1.1//EN" "http://www.w3.org/Graphics/SVG/1.1/DTD/svg11.dtd">
<svg xmlns="http://www.w3.org/2000/svg" xmlns:xlink="http://www.w3.org/1999/xlink" version="1.1" width="1080" height="1080" viewBox="0 0 1080 1080" xml:space="preserve">
<desc>Created with Fabric.js 5.2.4</desc>
<defs>
</defs>
<g transform="matrix(1 0 0 1 540 540)" id="f2cfa78c-2ee6-4367-a692-b1b22636bfa4"  >
<rect style="stroke: none; stroke-width: 1; stroke-dasharray: none; stroke-linecap: butt; stroke-dashoffset: 0; stroke-linejoin: miter; stroke-miterlimit: 4; fill: rgb(255,255,255); fill-rule: nonzero; opacity: 1; visibility: hidden;" vector-effect="non-scaling-stroke"  x="-540" y="-540" rx="0" ry="0" width="1080" height="1080" />
</g>
<g transform="matrix(1 0 0 1 540 540)" id="a7c6d787-f449-45f3-b897-be597c9ece16"  >
</g>
<g transform="matrix(1 0 0 1 540 540)" id="e80b4193-6219-46c6-baa5-602b11aa7130"  >
<path style="stroke: rgb(0,0,0); stroke-width: 0; stroke-dasharray: none; stroke-linecap: butt; stroke-dashoffset: 0; stroke-linejoin: miter; stroke-miterlimit: 4; fill: rgb(255,255,255); fill-rule: nonzero; opacity: 1;" vector-effect="non-scaling-stroke"  transform=" translate(-480.5, -572.5)" d="M 479.956 563 Q 403.13 563 355.565 514.935 Q 308 466.87 308 390.704 Q 308 314.53700000000003 355.406 266.769 Q 402.812 219 479.637 219 Q 556.463 219 604.731 266.656 Q 653 314.312 653 391.204 Q 653 466.87 604.891 514.935 Q 556.781 563 479.956 563 Z M 138 926 L 138 810.205 Q 138 766.226 160.828 733.595 Q 183.656 700.964 220 684 Q 288 652 351.72 637 Q 415.44100000000003 622 479.492 622 Q 545.462 622 608.231 638 Q 671 654 738.921 684.194 Q 776.8320000000001 699.972 799.916 732.75 Q 823 765.528 823 809.945 L 823 926 L 138 926 Z M 229 835 L 731 835 L 731 814 Q 731 798.647 721.3 783.937 Q 711.6 769.228 697 763 Q 637 734 587.005 724 Q 537.009 714 479.005 714 Q 423 714 372 724.5 Q 321 735 263.429 762.844 Q 247.74999999999997 769.428 238.37499999999997 783.82 Q 229 798.212 229 814 L 229 835 Z M 479.796 472 Q 514 472 537.5 448.654 Q 561 425.308 561 391.03499999999997 Q 561 356.34999999999997 537.704 332.67499999999995 Q 514.407 309 480.204 309 Q 446 309 422.5 332.721 Q 399 356.442 399 390.54 Q 399 425.05 422.296 448.52500000000003 Q 445.593 472 479.796 472 Z M 480 391 Z M 480 835 Z" stroke-linecap="round" />
</g>
</svg>