<?xml version="1.0" encoding="UTF-8" standalone="no" ?>
<!DOCTYPE svg PUBLIC "-//W3C//DTD SVG 1.1//EN" "http://www.w3.org/Graphics/SVG/1.1/DTD/svg11.dtd">
<svg xmlns="http://www.w3.org/2000/svg" xmlns:xlink="http://www.w3.org/1999/xlink" version="1.1" width="1080" height="1080" viewBox="0 0 1080 1080" xml:space="preserve">
<desc>Created with Fabric.js 5.2.4</desc>
<defs>
</defs>
<rect x="0" y="0" width="100%" height="100%" fill="transparent"></rect>
<g transform="matrix(1 0 0 1 540 540)" id="50b4e88a-ac92-4fd9-ac3c-54310b8000f7"  >
<rect style="stroke: none; stroke-width: 1; stroke-dasharray: none; stroke-linecap: butt; stroke-dashoffset: 0; stroke-linejoin: miter; stroke-miterlimit: 4; fill: rgb(255,255,255); fill-rule: nonzero; opacity: 1; visibility: hidden;" vector-effect="non-scaling-stroke"  x="-540" y="-540" rx="0" ry="0" width="1080" height="1080" />
</g>
<g transform="matrix(1 0 0 1 540 540)" id="a5a42aca-0c87-4987-870c-08defe7aabb6"  >
</g>
<g transform="matrix(1 0 0 1 540 540)" id="dd9fffe6-529d-4004-86d5-a9d4f8040b22"  >
<path style="stroke: rgb(0,0,0); stroke-width: 0; stroke-dasharray: none; stroke-linecap: butt; stroke-dashoffset: 0; stroke-linejoin: miter; stroke-miterlimit: 4; fill: rgb(255,255,255); fill-rule: nonzero; opacity: 1;" vector-effect="non-scaling-stroke"  transform=" translate(-480.5, -575.5)" d="M 369 997 L 348 864 Q 334 860 317.162 850.182 Q 300.323 840.364 289 831 L 165 888 L 52 688 L 165 605.835 Q 164 601.0740000000001 164 591.7 L 164 561.475 Q 164 553.407 165 546 L 52 462 L 165 264 L 291 321 Q 300.886 313.545 317.943 303.773 Q 335 294 348 290 L 369 154 L 592 154 L 612 289 Q 627 293 643.5 303 Q 660 313 671 321 L 797 264 L 909 462 L 794 543 Q 795 550.556 796.5 560 Q 798 569.444 798 576 Q 798 582.556 796.5 591.5 Q 795 600.444 794 607 L 909 688 L 795 888 L 671 831 Q 660 840 642.5 850.5 Q 625 861 613 864 L 592 997 L 369 997 Z M 479 703 Q 531.757 703 568.879 665.92 Q 606 628.84 606 576.141 Q 606 524.4 568.879 486.69999999999993 Q 531.757 449 479 449 Q 425 449 388.5 486.55899999999997 Q 352 524.117 352 575.8589999999999 Q 352 628.5569999999999 388.5 665.7789999999999 Q 425 703 479 703 Z M 478.382 646 Q 449 646 429 625.174 Q 409 604.348 409 575.882 Q 409 547.4169999999999 429.206 526.708 Q 449.412 506 478.706 506 Q 507 506 528 526.826 Q 549 547.652 549 576.118 Q 549 604.5830000000001 527.882 625.292 Q 506.765 646 478.382 646 Z M 481 576 Z M 445 906 L 515.363 906 L 530.25 795 Q 565 786 595.353 769.5 Q 625.707 753 650.1819999999999 726 L 756 773 L 787 714 L 694 647 Q 699 629.364 702 611.774 Q 705 594.185 705 576.092 Q 705 558 702 540 Q 699 522 695 506 L 788 438 L 756 379 L 650.182 426 Q 627 398 596.427 378.705 Q 565.853 359.41 529.598 356 L 516 246 L 444 246 L 431 356 Q 396 363 364.5 381 Q 333 399 309 425 L 205.28300000000002 379 L 173 438 L 265 504 Q 260 521 257.5 539 Q 255 557 255 576.545 Q 255 596 257.5 614 Q 260 632 265 647 L 173 714 L 205 773 L 309 726 Q 334 753 365 771 Q 396 789 431 796 L 445 906 Z" stroke-linecap="round" />
</g>
</svg>