<?xml version="1.0" encoding="UTF-8" standalone="no" ?>
<!DOCTYPE svg PUBLIC "-//W3C//DTD SVG 1.1//EN" "http://www.w3.org/Graphics/SVG/1.1/DTD/svg11.dtd">
<svg xmlns="http://www.w3.org/2000/svg" xmlns:xlink="http://www.w3.org/1999/xlink" version="1.1" width="1080" height="1080" viewBox="0 0 1080 1080" xml:space="preserve">
<desc>Created with Fabric.js 5.2.4</desc>
<defs>
</defs>
<rect x="0" y="0" width="100%" height="100%" fill="transparent"></rect>
<g transform="matrix(1 0 0 1 540 540)" id="50b4e88a-ac92-4fd9-ac3c-54310b8000f7"  >
<rect style="stroke: none; stroke-width: 1; stroke-dasharray: none; stroke-linecap: butt; stroke-dashoffset: 0; stroke-linejoin: miter; stroke-miterlimit: 4; fill: rgb(255,255,255); fill-rule: nonzero; opacity: 1; visibility: hidden;" vector-effect="non-scaling-stroke"  x="-540" y="-540" rx="0" ry="0" width="1080" height="1080" />
</g>
<g transform="matrix(1 0 0 1 540 540)" id="a5a42aca-0c87-4987-870c-08defe7aabb6"  >
</g>
<g transform="matrix(1 0 0 1 540 540)" id="85018f50-fd11-4751-8ba0-de3a20dc8090"  >
<path style="stroke: rgb(0,0,0); stroke-width: 0; stroke-dasharray: none; stroke-linecap: butt; stroke-dashoffset: 0; stroke-linejoin: miter; stroke-miterlimit: 4; fill: rgb(255,255,255); fill-rule: nonzero; opacity: 1;" vector-effect="non-scaling-stroke"  transform=" translate(-480.5, -575.5)" d="M 481.93 806 Q 499.48 806 513.24 792.57 Q 527 779.141 527 761.092 Q 527 743.042 513.31 730.021 Q 499.621 717 481.57 717 Q 463.52 717 450.26 729.871 Q 437 742.741 437 761.451 Q 437 779 450.32 792.5 Q 463.639 806 481.93 806 Z M 440 662 L 512 662 Q 512 638.93 518.5 617.965 Q 525 597 555 571 Q 585 549 597 523.426 Q 609 497.85300000000007 609 466.27000000000004 Q 609 410.58400000000006 577.219 377.29200000000003 Q 545.438 344 488.792 344 Q 436 344 396 372 Q 356 400 337 446.147 L 404 471 Q 415 443 435.986 427.5 Q 456.972 412 481 412 Q 505.5 412 522.75 426.901 Q 540 441.803 540 466.684 Q 540 485 528.786 503.5 Q 517.571 522 498 538 Q 470 561 455 590.07 Q 440 619.1400000000001 440 662 Z M 479.679 997 Q 393.35999999999996 997 316.033 964.396 Q 238.705 931.793 181.45600000000002 874.544 Q 124.20700000000002 817.295 91.60400000000001 739.9739999999999 Q 59 662.654 59 576.138 Q 59 488.72800000000007 91.662 411.86300000000006 Q 124.325 334.99800000000005 181.865 277.451 Q 239.405 219.90400000000002 316.276 186.95200000000003 Q 393.147 154 479.336 154 Q 566.886 154 644.221 186.858 Q 721.5550000000001 219.716 778.781 277.115 Q 836.006 334.514 869.0029999999999 411.629 Q 902 488.743 902 576.542 Q 902 663.2760000000001 869.048 739.924 Q 836.096 816.572 778.549 874.124 Q 721.002 931.6750000000001 644.1279999999999 964.337 Q 567.255 997 479.679 997 Z M 479.77099999999996 906 Q 616.5129999999999 906 713.256 809.613 Q 810 713.227 810 576.229 Q 810 439.4870000000001 713.485 342.744 Q 616.971 246 479.729 246 Q 343.48699999999997 246 246.74399999999997 342.515 Q 150 439.029 150 576.271 Q 150 712.5129999999999 246.387 809.256 Q 342.773 906 479.771 906 Z M 480 576 Z" stroke-linecap="round" />
</g>
</svg>